<svg width="180" height="180" viewBox="0 0 180 180" fill="none" xmlns="http://www.w3.org/2000/svg">
<path d="M128.351 149.794H50V149.776H128.351V149.794ZM72.2686 126.289L50 137.011V136.667L71.9062 126.315L66.3896 120.83L72.2686 126.289ZM101.594 38.4023L97.6436 50.3555C97.689 50.3772 104.352 53.5752 108.802 60.5967L93.2051 86.3516L97.9326 95.4434L113.116 69.5234C118.125 80.6653 125.169 96.5982 125.182 96.627L120.652 115.245L111.548 126.315L130 136.667V149.776H128.351V137.011L109.784 126.658L119.69 113.918L123.402 97.0107C123.402 97.0107 117.282 82.0902 112.681 71.8555L97.835 97.0107L92.4746 86.2891L107.732 60.7217C103.659 54.2941 97.0856 50.8624 97.0107 50.8252L100.31 38.8662L91.2373 31.4434L81.7529 38.8662L86.2891 50.8252C86.265 50.837 84.2919 51.142 81.6826 52.7646C83.8285 51.1394 85.4044 50.3673 85.4287 50.3555L80.7607 38.4023L91.3477 30.2061L101.594 38.4023ZM60.7725 115.245L66.3896 120.83L60.7217 115.567L60.459 113.797L60.7725 115.245ZM74.4414 60.4092C73.6692 61.7069 72.9352 63.1781 72.2686 64.8457C67.7404 74.0931 57.9727 95.0221 57.9727 97.0107L60.459 113.797L56.7471 96.627C56.7859 96.5454 67.6365 73.7367 72.5635 63.6748C73.1369 62.5037 73.7714 61.4161 74.4414 60.4092ZM81.6826 52.7646C79.5132 54.4077 76.7611 56.9232 74.4414 60.4092C76.7768 56.4844 79.4603 54.1466 81.6826 52.7646Z" fill="url(#paint0_linear_454_453)"/>
<path d="M128.351 137.01V149.794H50V137.01L72.2681 126.289L60.7217 115.567L57.8351 97.0104C57.8351 95.0217 67.7399 74.0928 72.2681 64.8454C77.318 52.2123 86.2374 50.8498 86.2887 50.8247L81.7526 38.8659L91.2372 31.4432L100.309 38.8659L97.0104 50.8247C97.0521 50.8447 103.648 54.2777 107.732 60.7216L92.4743 86.2887L97.8352 97.0104L112.681 71.8557C117.282 82.0904 123.402 97.0104 123.402 97.0104L119.691 113.918L109.784 126.658L128.351 137.01Z" fill="url(#paint1_linear_454_453)"/>
<defs>
<linearGradient id="paint0_linear_454_453" x1="82" y1="142.5" x2="141.89" y2="80.051" gradientUnits="userSpaceOnUse">
<stop stop-color="#7E7E7E"/>
<stop offset="1" stop-color="#262626"/>
</linearGradient>
<linearGradient id="paint1_linear_454_453" x1="88.7575" y1="134.55" x2="112.921" y2="54.9244" gradientUnits="userSpaceOnUse">
<stop/>
<stop offset="1" stop-color="#505050"/>
</linearGradient>
</defs>
</svg>
