<svg width="180" height="180" viewBox="0 0 180 180" fill="none" xmlns="http://www.w3.org/2000/svg">
<path d="M140 149.902H40L40 137.665L57.6286 130.322L53.3008 123.681L58.8839 117.789L40 92.2161V66.9128V39.7317L53.6947 55.1451L65.0475 45.0301L74.8521 55.1451H80.0125L76.9163 39.7317C76.9163 39.7317 84.6568 30.0984 89.3011 30.0984C93.9454 30.0984 102.718 40.2134 102.718 40.2134L100.138 55.1451H105.298L115.103 45.0301L124.907 55.1451L140 39.7317V92.2161L122.372 117.789L126.963 123.681L122.372 130.322L140 137.665V149.902Z" fill="url(#paint0_linear_454_681)"/>
<path d="M139.1 149.598H40.5355V137.598L57.6771 130.598L53.3917 123.598L58.7484 117.737L40.3535 91.0984V40.0457L53.9274 55.5984L64.6409 46.0984L74.2831 55.5457H80.7112L78.0328 40.0457C78.0328 40.0457 85.3155 33.0984 89.6941 33.0984C94.0727 33.0984 100.531 40.5984 100.531 40.5984L98.3884 56.0984H105.888L114.02 47.6807L124.636 58.0984L138.479 44.2209V91.7209L119.28 119.598L124.636 125.098L120.351 131.598L139.1 139.098V149.598Z" fill="url(#paint1_linear_454_681)"/>
<defs>
<linearGradient id="paint0_linear_454_681" x1="57.2611" y1="134.428" x2="150.549" y2="113.459" gradientUnits="userSpaceOnUse">
<stop stop-color="#7E7E7E"/>
<stop offset="1" stop-color="#262626"/>
</linearGradient>
<linearGradient id="paint1_linear_454_681" x1="89.2" y1="134.593" x2="108.41" y2="53.5472" gradientUnits="userSpaceOnUse">
<stop/>
<stop offset="1" stop-color="#505050"/>
</linearGradient>
</defs>
</svg>
