<svg width="180" height="180" viewBox="0 0 180 180" fill="none" xmlns="http://www.w3.org/2000/svg">
<path d="M138.513 131.025V145.79H41.4883V132.123L55.8416 122.729V90.7607L45.2607 84.1446L45.2607 33.9999H69.5424V47.5906H76.7006V33.9999H101.602V47.5906L109.232 47.5906V33.9999H134.853V84.1446L125.858 91.4767V121.533L138.513 131.025Z" fill="url(#paint0_linear_454_675)"/>
<path d="M135.308 130.708V146H41.4883V130.708L55.2181 121.723V91.1424L45.0969 84.4275V36.847H68.3239V49.8473H76.697V36.847H100.516V49.8473H108.889V36.847H130.797V84.8137L123.303 91.1424V121.723L135.308 130.708Z" fill="url(#paint1_linear_454_675)"/>
<defs>
<linearGradient id="paint0_linear_454_675" x1="103.093" y1="146.182" x2="144.596" y2="43.6748" gradientUnits="userSpaceOnUse">
<stop stop-color="#7E7E7E"/>
<stop offset="1" stop-color="#262626"/>
</linearGradient>
<linearGradient id="paint1_linear_454_675" x1="77.3926" y1="139.745" x2="95.9523" y2="50.7291" gradientUnits="userSpaceOnUse">
<stop/>
<stop offset="0.999625" stop-color="#505050"/>
</linearGradient>
</defs>
</svg>
