<svg width="180" height="180" viewBox="0 0 180 180" fill="none" xmlns="http://www.w3.org/2000/svg">
<path d="M130.137 136.828V149.983H49.8613V136.828L71.8435 126.441L60.671 115.333L56.6316 96.6502L56.632 96.6492C56.7126 96.4799 67.5686 73.6616 72.5031 63.5845C77.0416 54.3161 85.356 50.2467 85.4122 50.2192L80.728 38.2248L91.3518 30L101.633 38.2248L97.6696 50.2192C97.7152 50.2411 104.4 53.4495 108.866 60.4952L93.2154 86.3389L97.9593 95.4622L113.195 69.453C118.226 80.6434 125.302 96.6502 125.302 96.6502L120.757 115.333L111.621 126.441L130.137 136.828Z" fill="url(#paint0_linear_454_450)"/>
<path d="M128.482 137.172V150H49.8613V137.172L72.2062 126.414L60.62 115.655L57.7234 97.0344C57.7234 95.0389 67.6624 74.0378 72.2062 64.7585C77.2735 52.0819 86.2236 50.7147 86.2752 50.6895L81.7235 38.6895L91.2407 31.2412L100.344 38.6895L97.0338 50.6895C97.0757 50.7096 103.694 54.1544 107.792 60.6206L92.4821 86.2758L97.8614 97.0344L112.758 71.793C117.375 82.063 123.517 97.0344 123.517 97.0344L119.793 114L109.852 126.784L128.482 137.172Z" fill="url(#paint1_linear_454_450)"/>
<defs>
<linearGradient id="paint0_linear_454_450" x1="63.9076" y1="46.9279" x2="84.6412" y2="144.155" gradientUnits="userSpaceOnUse">
<stop stop-color="#ADADAD"/>
<stop offset="1" stop-color="white"/>
</linearGradient>
<linearGradient id="paint1_linear_454_450" x1="124.644" y1="138.277" x2="51.2237" y2="81.0529" gradientUnits="userSpaceOnUse">
<stop stop-color="#EEEEEE"/>
<stop offset="1" stop-color="white"/>
</linearGradient>
</defs>
</svg>
