<svg width="180" height="180" viewBox="0 0 180 180" fill="none" xmlns="http://www.w3.org/2000/svg">
<path d="M61.3986 70.0835L81.3239 74.8268C81.3239 74.8268 81.769 70.5298 82.8567 68.0398C83.3575 66.8932 84.3894 63.6002 84.3894 63.6002H71.2158V49.8058H82.8567L79.7736 37.4384L90.5462 31.2546L100.042 35.6857L98.3463 47.5019L109.265 47.303V65.0272L98.6947 65.2262C98.6947 65.2262 99.8247 66.9424 100.227 68.0398C101.203 70.6984 101.178 71.6866 101.178 71.6866L118.778 68.0398L134 84.5297L114.022 124.962L132.097 135.426V148.745L50.7574 147.794L49.3304 136.78L73.6736 128.873L47.4277 85.9567L61.3986 70.0835Z" fill="url(#paint0_linear_454_451)"/>
<path d="M61.2215 69.3083L79.7726 73.7244C79.7726 73.7244 80.1869 69.7238 81.1996 67.4055C81.6659 66.3379 82.6266 64.7859 82.6266 64.7859H70.3616V48.284H82.044L79.518 37.2827L88.3589 33.1572L97.1997 37.2827L95.621 48.284H106.672V64.7859H95.9454C95.9454 64.7859 96.9974 66.3837 97.3724 67.4055C98.2808 69.8807 99.2751 73.7244 99.2751 73.7244L117.826 69.3083L131.621 85.0054L111.167 124.962L130.669 135.834V148.745H48.8541V135.834L70.4358 124.962L46 85.0054L61.2215 69.3083Z" fill="url(#paint1_linear_454_451)"/>
<defs>
<linearGradient id="paint0_linear_454_451" x1="62.5756" y1="47.831" x2="81.1529" y2="143.771" gradientUnits="userSpaceOnUse">
<stop stop-color="#ADADAD"/>
<stop offset="1" stop-color="white"/>
</linearGradient>
<linearGradient id="paint1_linear_454_451" x1="127.44" y1="137.335" x2="54.4349" y2="73.6681" gradientUnits="userSpaceOnUse">
<stop stop-color="#EEEEEE"/>
<stop offset="1" stop-color="white"/>
</linearGradient>
</defs>
</svg>
