<svg width="180" height="180" viewBox="0 0 180 180" fill="none" xmlns="http://www.w3.org/2000/svg">
<path d="M131.076 142.996L122.671 130.856L138.106 93.6398L122.724 50.8111L97.0545 30L94.396 41.9454L41.8926 69.9316L57.5107 89.0442L71.4673 84.6073L84.3829 90.7004L54.9665 112.179L65.0669 130.856L54.4996 142.996L56.8343 150H129.198L131.076 142.996Z" fill="url(#paint0_linear_454_449)"/>
<path d="M129.127 143.801L120.271 130.959L135.769 93.7639L120.713 52.5831L97.6876 33.5425L95.9164 43.2842L43.2227 70.7381L57.8352 88.4502L71.5621 84.0222L84.8463 90.6643L56.5068 111.919L65.8057 130.959L56.064 142.915L57.8352 150H127.355L129.127 143.801Z" fill="url(#paint1_linear_454_449)"/>
<defs>
<linearGradient id="paint0_linear_454_449" x1="58.7275" y1="46.9304" x2="76.2633" y2="145.473" gradientUnits="userSpaceOnUse">
<stop stop-color="#ADADAD"/>
<stop offset="1" stop-color="white"/>
</linearGradient>
<linearGradient id="paint1_linear_454_449" x1="131.25" y1="138.504" x2="57.1699" y2="69.1954" gradientUnits="userSpaceOnUse">
<stop stop-color="#EEEEEE"/>
<stop offset="1" stop-color="white"/>
</linearGradient>
</defs>
</svg>
