<svg width="180" height="180" viewBox="0 0 180 180" fill="none" xmlns="http://www.w3.org/2000/svg">
<path d="M140.082 150H39.918L39.918 137.744L57.5756 130.388L53.2406 123.736L58.8328 117.835L39.918 92.2198V66.8748V39.6492L53.6352 55.0878L65.0066 44.9562L74.8273 55.0878H79.9962L76.8949 39.6492C76.8949 39.6492 84.6481 30 89.3 30C93.952 30 102.739 40.1316 102.739 40.1316L100.155 55.0878H105.323L115.144 44.9562L124.965 55.0878L140.082 39.6492V92.2198L122.425 117.835L127.024 123.736L122.425 130.388L140.082 137.744V150Z" fill="url(#paint0_linear_459_689)"/>
<path d="M139.182 149.696H40.4557V137.677L57.6255 130.665L53.333 123.654L58.6986 117.783L40.2734 91.1001V39.9636L53.8696 55.5418L64.6007 46.0262L74.2587 55.4891H80.6974L78.0146 39.9636C78.0146 39.9636 85.3093 33.0049 89.695 33.0049C94.0808 33.0049 100.55 40.5172 100.55 40.5172L98.4037 56.0427H105.915L114.06 47.6111L124.695 58.0459L138.56 44.1457V91.7237L119.329 119.647L124.695 125.156L120.402 131.667L139.182 139.179V149.696Z" fill="url(#paint1_linear_459_689)"/>
<defs>
<linearGradient id="paint0_linear_459_689" x1="57.4442" y1="46.9304" x2="74.3284" y2="145.708" gradientUnits="userSpaceOnUse">
<stop stop-color="#ADADAD"/>
<stop offset="1" stop-color="white"/>
</linearGradient>
<linearGradient id="paint1_linear_459_689" x1="134.353" y1="138.177" x2="59.9592" y2="63.9397" gradientUnits="userSpaceOnUse">
<stop stop-color="#EEEEEE"/>
<stop offset="1" stop-color="white"/>
</linearGradient>
</defs>
</svg>
