<?xml version="1.0" encoding="UTF-8"?><svg id="a" xmlns="http://www.w3.org/2000/svg" viewBox="0 0 560 560"><defs><style>.b{fill:#cf3120;}.c{fill:#f2f2f2;}</style></defs><circle class="b" cx="280" cy="280" r="280"/><path class="c" d="M258.85,110.13H109.99c-6.05,0-10.96,4.9-10.96,10.96v101.36c0,6.05,4.9,10.96,10.96,10.96h37.4c6.05,0,10.96-4.9,10.96-10.96v-50.68h53.46v98.21h-56.7c-6.05,0-10.96,4.9-10.96,10.96v80.49c0,6.05,4.9,10.96,10.96,10.96h45.74c6.05,0,10.96-4.9,10.96-10.96v-35.27h47.05c6.05,0,10.96-4.9,10.96-10.96V121.08c0-6.05-4.9-10.96-10.96-10.96Z"/><rect class="c" x="144.15" y="402.95" width="68.27" height="68.92" rx="10.96" ry="10.96"/><path class="c" d="M462.01,110.13h-148.86c-6.05,0-10.96,4.9-10.96,10.96v101.36c0,6.05,4.9,10.96,10.96,10.96h37.4c6.05,0,10.96-4.9,10.96-10.96v-50.68h53.46v98.21h-56.7c-6.05,0-10.96,4.9-10.96,10.96v80.49c0,6.05,4.9,10.96,10.96,10.96h45.74c6.05,0,10.96-4.9,10.96-10.96v-35.27h47.05c6.05,0,10.96-4.9,10.96-10.96V121.08c0-6.05-4.9-10.96-10.96-10.96Z"/><rect class="c" x="347.31" y="402.95" width="68.27" height="68.92" rx="10.96" ry="10.96"/></svg>