<?xml version="1.0" encoding="UTF-8"?><svg id="a" xmlns="http://www.w3.org/2000/svg" viewBox="0 0 560 560"><defs><style>.b{fill:#f2f2f2;}.c{fill:#6eaf20;}</style></defs><circle class="c" cx="280" cy="280" r="280"/><path class="b" d="M449.41,285.16c15.59-5.59,19.01-16.83,17.86-27.69-1.25-11.8-11.93-21.05-23.22-23.22-32.88-6.33-61.45,1.76-84.4.45-4.29-.25-23.21-5.4-17.86-14.29,8.33-13.85,22.34-87.83,10.4-101.05-4.86-5.38-15.53-11.95-25.14-10.14-51.01,9.63,18.75,67.43-104.05,132.62,0,52.37.18,105.86,0,143.01,25.69.86,28.86,16.62,58.46,30.84,12.74,6.12,101.52,5.36,121.87,4.07,6.12-.39,16.99-9.66,19.54-22.05,3.79-18.44-15.33-22.75-7.85-21.91,4.77.54,28.4-2.95,29.42-19.39,1.59-25.5-14-26.31-7.54-26.6,11.24-.52,20.23-11.43,20.99-22.33,1.76-25.24-17.78-19-8.48-22.33Z"/><path class="b" d="M179.76,221.48h-66.74v186.96h66.74c10.29,0,18.63-8.34,18.63-18.63v-149.69c0-10.29-8.34-18.63-18.63-18.63Z"/></svg>