<?xml version="1.0" encoding="UTF-8"?><svg id="a" xmlns="http://www.w3.org/2000/svg" viewBox="0 0 560 560"><defs><style>.b{fill:#e8ba02;}.c{fill:#f2f2f2;}</style></defs><circle class="b" cx="280" cy="280" r="280"/><rect class="c" x="347.22" y="416.39" width="76.96" height="77.69" rx="12.35" ry="12.35"/><rect class="c" x="347.22" y="88.81" width="76.96" height="295.63" rx="12.35" ry="12.35"/><path class="c" d="M292.45,88.81H124.65c-6.82,0-12.35,5.53-12.35,12.35v114.26c0,6.82,5.53,12.35,12.35,12.35h42.16c6.82,0,12.35-5.53,12.35-12.35v-57.13h60.26v110.72h-63.91c-6.82,0-12.35,5.53-12.35,12.35v90.74c0,6.82,5.53,12.35,12.35,12.35h51.56c6.82,0,12.35-5.53,12.35-12.35v-39.76h53.04c6.82,0,12.35-5.53,12.35-12.35V101.16c0-6.82-5.53-12.35-12.35-12.35Z"/><rect class="c" x="163.15" y="418.91" width="76.96" height="77.69" rx="12.35" ry="12.35"/></svg>