<?xml version="1.0" encoding="UTF-8"?><svg id="a" xmlns="http://www.w3.org/2000/svg" viewBox="0 0 560 560"><defs><style>.b{fill:#d45959;}.c{fill:#f2f2f2;}</style></defs><circle class="b" cx="280" cy="280" r="280"/><path class="c" d="M374.14,112.97l-94.14,94.14-94.14-94.14c-5.21-5.21-13.65-5.21-18.85,0l-54.04,54.04c-5.21,5.21-5.21,13.65,0,18.85l94.14,94.14-94.14,94.14c-5.21,5.21-5.21,13.65,0,18.85l54.04,54.04c5.21,5.21,13.65,5.21,18.85,0l94.14-94.14,94.14,94.14c5.21,5.21,13.65,5.21,18.85,0l54.04-54.04c5.21-5.21,5.21-13.65,0-18.85l-94.14-94.14,94.14-94.14c5.21-5.21,5.21-13.65,0-18.85l-54.04-54.04c-5.21-5.21-13.65-5.21-18.85,0Z"/></svg>