<?xml version="1.0" encoding="UTF-8"?><svg id="a" xmlns="http://www.w3.org/2000/svg" viewBox="0 0 560 560"><defs><style>.b{fill:#f2f2f2;}.c{fill:#e5820d;}</style></defs><circle class="c" cx="280" cy="280" r="280"/><path class="b" d="M363.9,76.1h-167.81c-6.82,0-12.35,5.53-12.35,12.35v114.26c0,6.82,5.53,12.35,12.35,12.35h42.16c6.82,0,12.35-5.53,12.35-12.35v-57.13h60.26v110.72h-63.91c-6.82,0-12.35,5.53-12.35,12.35v90.74c0,6.82,5.53,12.35,12.35,12.35h51.56c6.82,0,12.35-5.53,12.35-12.35v-39.76h53.04c6.82,0,12.35-5.53,12.35-12.35V88.45c0-6.82-5.53-12.35-12.35-12.35Z"/><rect class="b" x="234.6" y="406.2" width="76.96" height="77.69" rx="12.35" ry="12.35"/></svg>